<?xml version="1.0" encoding="UTF-8" standalone="no"?>
<!DOCTYPE svg PUBLIC "-//W3C//DTD SVG 1.1//EN" "http://www.w3.org/Graphics/SVG/1.1/DTD/svg11.dtd">
<svg xmlns="http://www.w3.org/2000/svg" version="1.1" viewBox="0.00 0.00 1831.00 343.00">
<g stroke-width="2.00" fill="none" stroke-linecap="butt">
<path stroke="#b3b3b3" vector-effect="non-scaling-stroke" d="
  M 1809.00 22.57
  A 0.57 0.57 0.0 0 0 1808.43 22.00
  L 22.57 22.00
  A 0.57 0.57 0.0 0 0 22.00 22.57
  L 22.00 320.43
  A 0.57 0.57 0.0 0 0 22.57 321.00
  L 1808.43 321.00
  A 0.57 0.57 0.0 0 0 1809.00 320.43
  L 1809.00 22.57"
/>
<path stroke="#a2f0a4" vector-effect="non-scaling-stroke" d="
  M 804.00 45.29
  A 0.32 0.32 0.0 0 0 803.68 44.97
  L 45.32 45.00
  A 0.32 0.32 0.0 0 0 45.00 45.32
  L 45.00 297.68
  A 0.32 0.32 0.0 0 0 45.32 298.00
  L 803.68 298.00
  A 0.32 0.32 0.0 0 0 804.00 297.68
  L 804.00 45.29"
/>
<path stroke="#c4c7bc" vector-effect="non-scaling-stroke" d="
  M 1786.00 45.58
  A 0.58 0.58 0.0 0 0 1785.42 45.00
  L 827.58 45.00
  A 0.58 0.58 0.0 0 0 827.00 45.58
  L 827.00 297.42
  A 0.58 0.58 0.0 0 0 827.58 298.00
  L 1785.42 298.00
  A 0.58 0.58 0.0 0 0 1786.00 297.42
  L 1786.00 45.58"
/>
<path stroke="#a2f0a4" vector-effect="non-scaling-stroke" d="
  M 159.45 183.00
  A 0.55 0.55 0.0 0 1 160.00 183.55
  L 160.00 205.45
  A 0.55 0.55 0.0 0 0 160.55 206.00
  L 182.45 206.00
  A 0.55 0.55 0.0 0 0 183.00 205.45
  L 183.00 160.55
  A 0.55 0.55 0.0 0 0 182.45 160.00
  L 137.55 160.00
  A 0.55 0.55 0.0 0 1 137.00 159.45
  L 137.00 137.55
  A 0.55 0.55 0.0 0 1 137.55 137.00
  L 182.45 137.00
  A 0.55 0.55 0.0 0 1 183.00 137.55
  L 183.00 159.45
  A 0.55 0.55 0.0 0 0 183.55 160.00
  L 205.45 160.00
  A 0.55 0.55 0.0 0 0 206.00 159.45
  L 206.00 137.61
  A 0.55 0.55 0.0 0 0 205.45 137.06
  L 183.55 136.97
  A 0.55 0.55 0.0 0 1 183.00 136.42
  L 183.00 114.55
  A 0.55 0.55 0.0 0 0 182.45 114.00
  L 114.55 114.00
  A 0.55 0.55 0.0 0 0 114.00 114.55
  L 114.00 228.46
  A 0.55 0.55 0.0 0 0 114.55 229.01
  L 136.45 228.98
  A 0.55 0.55 0.0 0 0 137.00 228.43
  L 137.00 183.55
  A 0.55 0.55 0.0 0 1 137.55 183.00
  L 159.45 183.00"
/>
<path stroke="#a2f0a4" vector-effect="non-scaling-stroke" d="
  M 275.02 137.00
  L 252.50 137.04
  Q 252.00 137.04 252.00 137.53
  L 252.00 159.50
  Q 252.00 160.01 252.50 160.01
  L 274.32 159.99
  A 0.67 0.67 0.0 0 0 274.99 159.32
  L 275.02 137.00"
/>
<path stroke="#a2f0a4" vector-effect="non-scaling-stroke" d="
  M 275.02 137.00
  L 343.50 136.98
  A 0.50 0.50 0.0 0 0 344.00 136.48
  L 344.00 114.50
  A 0.50 0.50 0.0 0 0 343.50 114.00
  L 275.73 114.00
  Q 275.05 114.00 275.05 114.68
  L 275.02 137.00"
/>
<path stroke="#a2f0a4" vector-effect="non-scaling-stroke" d="
  M 413.02 136.99
  L 390.99 137.00
  A 1.00 0.99 90.0 0 0 390.00 138.00
  L 390.00 159.50
  A 0.50 0.50 0.0 0 0 390.50 160.00
  L 412.16 160.00
  A 0.84 0.84 0.0 0 0 413.00 159.16
  L 413.02 136.99"
/>
<path stroke="#a2f0a4" vector-effect="non-scaling-stroke" d="
  M 413.02 136.99
  L 481.51 136.97
  A 0.49 0.49 0.0 0 0 482.00 136.48
  L 482.00 114.50
  A 0.50 0.50 0.0 0 0 481.50 114.00
  L 413.73 114.00
  Q 413.05 114.00 413.05 114.68
  L 413.02 136.99"
/>
<path stroke="#a2f0a4" vector-effect="non-scaling-stroke" d="
  M 321.61 183.00
  A 0.61 0.61 0.0 0 1 321.00 182.39
  L 321.00 160.61
  A 0.61 0.61 0.0 0 0 320.39 160.00
  L 275.61 160.00
  A 0.61 0.61 0.0 0 0 275.00 160.61
  L 275.00 182.39
  A 0.61 0.61 0.0 0 0 275.61 183.00
  L 320.39 183.00
  A 0.61 0.61 0.0 0 1 321.00 183.61
  L 321.00 205.39
  A 0.61 0.61 0.0 0 0 321.61 206.00
  L 343.39 206.00
  A 0.61 0.61 0.0 0 0 344.00 205.39
  L 344.00 183.61
  A 0.61 0.61 0.0 0 0 343.39 183.00
  L 321.61 183.00"
/>
<path stroke="#a2f0a4" vector-effect="non-scaling-stroke" d="
  M 459.55 183.00
  A 0.55 0.55 0.0 0 1 459.00 182.45
  L 459.00 160.55
  A 0.55 0.55 0.0 0 0 458.45 160.00
  L 413.55 160.00
  A 0.55 0.55 0.0 0 0 413.00 160.55
  L 413.00 182.45
  A 0.55 0.55 0.0 0 0 413.55 183.00
  L 458.45 183.00
  A 0.55 0.55 0.0 0 1 459.00 183.55
  L 459.00 205.45
  A 0.55 0.55 0.0 0 0 459.55 206.00
  L 481.45 206.00
  A 0.55 0.55 0.0 0 0 482.00 205.45
  L 482.00 183.55
  A 0.55 0.55 0.0 0 0 481.45 183.00
  L 459.55 183.00"
/>
<path stroke="#a2f0a4" vector-effect="non-scaling-stroke" d="
  M 206.00 206.52
  A 0.52 0.52 0.0 0 0 205.48 206.00
  L 183.52 206.00
  A 0.52 0.52 0.0 0 0 183.00 206.52
  L 183.00 228.48
  A 0.52 0.52 0.0 0 0 183.52 229.00
  L 205.48 229.00
  A 0.52 0.52 0.0 0 0 206.00 228.48
  L 206.00 206.52"
/>
<path stroke="#a2f0a4" vector-effect="non-scaling-stroke" d="
  M 321.00 206.50
  A 0.50 0.50 0.0 0 0 320.50 206.00
  L 252.50 206.00
  A 0.50 0.50 0.0 0 0 252.00 206.50
  L 252.00 228.50
  A 0.50 0.50 0.0 0 0 252.50 229.00
  L 320.50 229.00
  A 0.50 0.50 0.0 0 0 321.00 228.50
  L 321.00 206.50"
/>
<path stroke="#a2f0a4" vector-effect="non-scaling-stroke" d="
  M 459.00 206.50
  A 0.50 0.50 0.0 0 0 458.50 206.00
  L 390.50 206.00
  A 0.50 0.50 0.0 0 0 390.00 206.50
  L 390.00 228.50
  A 0.50 0.50 0.0 0 0 390.50 229.00
  L 458.50 229.00
  A 0.50 0.50 0.0 0 0 459.00 228.50
  L 459.00 206.50"
/>
<path stroke="#c4c7bc" vector-effect="non-scaling-stroke" d="
  M 918.52 137.00
  A 0.48 0.48 0.0 0 1 919.00 137.48
  L 919.00 205.52
  A 0.48 0.48 0.0 0 1 918.52 206.00
  L 896.48 206.00
  A 0.48 0.48 0.0 0 0 896.00 206.48
  L 896.00 228.52
  A 0.48 0.48 0.0 0 0 896.48 229.00
  L 964.52 229.00
  A 0.48 0.48 0.0 0 0 965.00 228.52
  L 965.00 206.48
  A 0.48 0.48 0.0 0 0 964.52 206.00
  L 942.48 206.00
  A 0.48 0.48 0.0 0 1 942.00 205.52
  L 942.00 114.48
  A 0.48 0.48 0.0 0 0 941.52 114.00
  L 896.48 114.00
  A 0.48 0.48 0.0 0 0 896.00 114.48
  L 896.00 136.52
  A 0.48 0.48 0.0 0 0 896.48 137.00
  L 918.52 137.00"
/>
<path stroke="#c4c7bc" vector-effect="non-scaling-stroke" d="
  M 1096.01 137.00
  L 1073.50 137.00
  A 0.51 0.50 -90.0 0 0 1073.00 137.51
  L 1073.00 205.50
  Q 1073.00 206.00 1073.50 206.00
  L 1095.46 206.00
  Q 1095.98 206.00 1095.98 205.48
  L 1096.01 137.00"
/>
<path stroke="#c4c7bc" vector-effect="non-scaling-stroke" d="
  M 1096.01 137.00
  L 1141.50 136.99
  Q 1142.00 136.99 1142.00 136.49
  L 1142.00 115.00
  A 1.00 1.00 0.0 0 0 1141.00 114.00
  L 1096.73 114.00
  A 0.68 0.68 0.0 0 0 1096.05 114.68
  L 1096.01 137.00"
/>
<path stroke="#c4c7bc" vector-effect="non-scaling-stroke" d="
  M 1141.98 206.01
  L 1096.49 206.03
  A 0.49 0.49 0.0 0 0 1096.00 206.52
  L 1096.00 228.50
  A 0.50 0.50 0.0 0 0 1096.50 229.00
  L 1141.28 229.00
  A 0.64 0.64 0.0 0 0 1141.92 228.36
  L 1141.98 206.01"
/>
<path stroke="#c4c7bc" vector-effect="non-scaling-stroke" d="
  M 1141.98 206.01
  L 1164.49 206.00
  A 0.51 0.51 0.0 0 0 1165.00 205.49
  L 1165.00 138.26
  Q 1165.00 137.02 1163.76 137.02
  L 1142.52 136.99
  A 0.53 0.52 -90.0 0 0 1142.00 137.52
  L 1141.98 206.01"
/>
<path stroke="#c4c7bc" vector-effect="non-scaling-stroke" d="
  M 1026.9809 206.5699
  A 0.59 0.59 0.0 0 0 1026.3899 205.9810
  L 1004.5699 206.0191
  A 0.59 0.59 0.0 0 0 1003.9810 206.6101
  L 1004.0191 228.4301
  A 0.59 0.59 0.0 0 0 1004.6101 229.0190
  L 1026.4301 228.9809
  A 0.59 0.59 0.0 0 0 1027.0190 228.3899
  L 1026.9809 206.5699"
/>
</g>
<path fill="#666666" d="
  M 0.00 0.00
  L 1831.00 0.00
  L 1831.00 343.00
  L 0.00 343.00
  L 0.00 0.00
  Z
  M 1809.00 22.57
  A 0.57 0.57 0.0 0 0 1808.43 22.00
  L 22.57 22.00
  A 0.57 0.57 0.0 0 0 22.00 22.57
  L 22.00 320.43
  A 0.57 0.57 0.0 0 0 22.57 321.00
  L 1808.43 321.00
  A 0.57 0.57 0.0 0 0 1809.00 320.43
  L 1809.00 22.57
  Z"
/>
<path fill="#ffffff" d="
  M 1809.00 320.43
  A 0.57 0.57 0.0 0 1 1808.43 321.00
  L 22.57 321.00
  A 0.57 0.57 0.0 0 1 22.00 320.43
  L 22.00 22.57
  A 0.57 0.57 0.0 0 1 22.57 22.00
  L 1808.43 22.00
  A 0.57 0.57 0.0 0 1 1809.00 22.57
  L 1809.00 320.43
  Z
  M 804.00 45.29
  A 0.32 0.32 0.0 0 0 803.68 44.97
  L 45.32 45.00
  A 0.32 0.32 0.0 0 0 45.00 45.32
  L 45.00 297.68
  A 0.32 0.32 0.0 0 0 45.32 298.00
  L 803.68 298.00
  A 0.32 0.32 0.0 0 0 804.00 297.68
  L 804.00 45.29
  Z
  M 1786.00 45.58
  A 0.58 0.58 0.0 0 0 1785.42 45.00
  L 827.58 45.00
  A 0.58 0.58 0.0 0 0 827.00 45.58
  L 827.00 297.42
  A 0.58 0.58 0.0 0 0 827.58 298.00
  L 1785.42 298.00
  A 0.58 0.58 0.0 0 0 1786.00 297.42
  L 1786.00 45.58
  Z"
/>
<path fill="#45e148" d="
  M 804.00 45.29
  L 804.00 297.68
  A 0.32 0.32 0.0 0 1 803.68 298.00
  L 45.32 298.00
  A 0.32 0.32 0.0 0 1 45.00 297.68
  L 45.00 45.32
  A 0.32 0.32 0.0 0 1 45.32 45.00
  L 803.68 44.97
  A 0.32 0.32 0.0 0 1 804.00 45.29
  Z
  M 159.45 183.00
  A 0.55 0.55 0.0 0 1 160.00 183.55
  L 160.00 205.45
  A 0.55 0.55 0.0 0 0 160.55 206.00
  L 182.45 206.00
  A 0.55 0.55 0.0 0 0 183.00 205.45
  L 183.00 160.55
  A 0.55 0.55 0.0 0 0 182.45 160.00
  L 137.55 160.00
  A 0.55 0.55 0.0 0 1 137.00 159.45
  L 137.00 137.55
  A 0.55 0.55 0.0 0 1 137.55 137.00
  L 182.45 137.00
  A 0.55 0.55 0.0 0 1 183.00 137.55
  L 183.00 159.45
  A 0.55 0.55 0.0 0 0 183.55 160.00
  L 205.45 160.00
  A 0.55 0.55 0.0 0 0 206.00 159.45
  L 206.00 137.61
  A 0.55 0.55 0.0 0 0 205.45 137.06
  L 183.55 136.97
  A 0.55 0.55 0.0 0 1 183.00 136.42
  L 183.00 114.55
  A 0.55 0.55 0.0 0 0 182.45 114.00
  L 114.55 114.00
  A 0.55 0.55 0.0 0 0 114.00 114.55
  L 114.00 228.46
  A 0.55 0.55 0.0 0 0 114.55 229.01
  L 136.45 228.98
  A 0.55 0.55 0.0 0 0 137.00 228.43
  L 137.00 183.55
  A 0.55 0.55 0.0 0 1 137.55 183.00
  L 159.45 183.00
  Z
  M 275.02 137.00
  L 252.50 137.04
  Q 252.00 137.04 252.00 137.53
  L 252.00 159.50
  Q 252.00 160.01 252.50 160.01
  L 274.32 159.99
  A 0.67 0.67 0.0 0 0 274.99 159.32
  L 275.02 137.00
  L 343.50 136.98
  A 0.50 0.50 0.0 0 0 344.00 136.48
  L 344.00 114.50
  A 0.50 0.50 0.0 0 0 343.50 114.00
  L 275.73 114.00
  Q 275.05 114.00 275.05 114.68
  L 275.02 137.00
  Z
  M 413.02 136.99
  L 390.99 137.00
  A 1.00 0.99 90.0 0 0 390.00 138.00
  L 390.00 159.50
  A 0.50 0.50 0.0 0 0 390.50 160.00
  L 412.16 160.00
  A 0.84 0.84 0.0 0 0 413.00 159.16
  L 413.02 136.99
  L 481.51 136.97
  A 0.49 0.49 0.0 0 0 482.00 136.48
  L 482.00 114.50
  A 0.50 0.50 0.0 0 0 481.50 114.00
  L 413.73 114.00
  Q 413.05 114.00 413.05 114.68
  L 413.02 136.99
  Z
  M 321.61 183.00
  A 0.61 0.61 0.0 0 1 321.00 182.39
  L 321.00 160.61
  A 0.61 0.61 0.0 0 0 320.39 160.00
  L 275.61 160.00
  A 0.61 0.61 0.0 0 0 275.00 160.61
  L 275.00 182.39
  A 0.61 0.61 0.0 0 0 275.61 183.00
  L 320.39 183.00
  A 0.61 0.61 0.0 0 1 321.00 183.61
  L 321.00 205.39
  A 0.61 0.61 0.0 0 0 321.61 206.00
  L 343.39 206.00
  A 0.61 0.61 0.0 0 0 344.00 205.39
  L 344.00 183.61
  A 0.61 0.61 0.0 0 0 343.39 183.00
  L 321.61 183.00
  Z
  M 459.55 183.00
  A 0.55 0.55 0.0 0 1 459.00 182.45
  L 459.00 160.55
  A 0.55 0.55 0.0 0 0 458.45 160.00
  L 413.55 160.00
  A 0.55 0.55 0.0 0 0 413.00 160.55
  L 413.00 182.45
  A 0.55 0.55 0.0 0 0 413.55 183.00
  L 458.45 183.00
  A 0.55 0.55 0.0 0 1 459.00 183.55
  L 459.00 205.45
  A 0.55 0.55 0.0 0 0 459.55 206.00
  L 481.45 206.00
  A 0.55 0.55 0.0 0 0 482.00 205.45
  L 482.00 183.55
  A 0.55 0.55 0.0 0 0 481.45 183.00
  L 459.55 183.00
  Z
  M 206.00 206.52
  A 0.52 0.52 0.0 0 0 205.48 206.00
  L 183.52 206.00
  A 0.52 0.52 0.0 0 0 183.00 206.52
  L 183.00 228.48
  A 0.52 0.52 0.0 0 0 183.52 229.00
  L 205.48 229.00
  A 0.52 0.52 0.0 0 0 206.00 228.48
  L 206.00 206.52
  Z
  M 321.00 206.50
  A 0.50 0.50 0.0 0 0 320.50 206.00
  L 252.50 206.00
  A 0.50 0.50 0.0 0 0 252.00 206.50
  L 252.00 228.50
  A 0.50 0.50 0.0 0 0 252.50 229.00
  L 320.50 229.00
  A 0.50 0.50 0.0 0 0 321.00 228.50
  L 321.00 206.50
  Z
  M 459.00 206.50
  A 0.50 0.50 0.0 0 0 458.50 206.00
  L 390.50 206.00
  A 0.50 0.50 0.0 0 0 390.00 206.50
  L 390.00 228.50
  A 0.50 0.50 0.0 0 0 390.50 229.00
  L 458.50 229.00
  A 0.50 0.50 0.0 0 0 459.00 228.50
  L 459.00 206.50
  Z"
/>
<path fill="#898e78" d="
  M 1786.00 297.42
  A 0.58 0.58 0.0 0 1 1785.42 298.00
  L 827.58 298.00
  A 0.58 0.58 0.0 0 1 827.00 297.42
  L 827.00 45.58
  A 0.58 0.58 0.0 0 1 827.58 45.00
  L 1785.42 45.00
  A 0.58 0.58 0.0 0 1 1786.00 45.58
  L 1786.00 297.42
  Z
  M 918.52 137.00
  A 0.48 0.48 0.0 0 1 919.00 137.48
  L 919.00 205.52
  A 0.48 0.48 0.0 0 1 918.52 206.00
  L 896.48 206.00
  A 0.48 0.48 0.0 0 0 896.00 206.48
  L 896.00 228.52
  A 0.48 0.48 0.0 0 0 896.48 229.00
  L 964.52 229.00
  A 0.48 0.48 0.0 0 0 965.00 228.52
  L 965.00 206.48
  A 0.48 0.48 0.0 0 0 964.52 206.00
  L 942.48 206.00
  A 0.48 0.48 0.0 0 1 942.00 205.52
  L 942.00 114.48
  A 0.48 0.48 0.0 0 0 941.52 114.00
  L 896.48 114.00
  A 0.48 0.48 0.0 0 0 896.00 114.48
  L 896.00 136.52
  A 0.48 0.48 0.0 0 0 896.48 137.00
  L 918.52 137.00
  Z
  M 1096.01 137.00
  L 1073.50 137.00
  A 0.51 0.50 -90.0 0 0 1073.00 137.51
  L 1073.00 205.50
  Q 1073.00 206.00 1073.50 206.00
  L 1095.46 206.00
  Q 1095.98 206.00 1095.98 205.48
  L 1096.01 137.00
  L 1141.50 136.99
  Q 1142.00 136.99 1142.00 136.49
  L 1142.00 115.00
  A 1.00 1.00 0.0 0 0 1141.00 114.00
  L 1096.73 114.00
  A 0.68 0.68 0.0 0 0 1096.05 114.68
  L 1096.01 137.00
  Z
  M 1141.98 206.01
  L 1096.49 206.03
  A 0.49 0.49 0.0 0 0 1096.00 206.52
  L 1096.00 228.50
  A 0.50 0.50 0.0 0 0 1096.50 229.00
  L 1141.28 229.00
  A 0.64 0.64 0.0 0 0 1141.92 228.36
  L 1141.98 206.01
  L 1164.49 206.00
  A 0.51 0.51 0.0 0 0 1165.00 205.49
  L 1165.00 138.26
  Q 1165.00 137.02 1163.76 137.02
  L 1142.52 136.99
  A 0.53 0.52 -90.0 0 0 1142.00 137.52
  L 1141.98 206.01
  Z
  M 1026.9809 206.5699
  A 0.59 0.59 0.0 0 0 1026.3899 205.9810
  L 1004.5699 206.0191
  A 0.59 0.59 0.0 0 0 1003.9810 206.6101
  L 1004.0191 228.4301
  A 0.59 0.59 0.0 0 0 1004.6101 229.0190
  L 1026.4301 228.9809
  A 0.59 0.59 0.0 0 0 1027.0190 228.3899
  L 1026.9809 206.5699
  Z"
/>
<path fill="#ffffff" d="
  M 159.45 183.00
  L 137.55 183.00
  A 0.55 0.55 0.0 0 0 137.00 183.55
  L 137.00 228.43
  A 0.55 0.55 0.0 0 1 136.45 228.98
  L 114.55 229.01
  A 0.55 0.55 0.0 0 1 114.00 228.46
  L 114.00 114.55
  A 0.55 0.55 0.0 0 1 114.55 114.00
  L 182.45 114.00
  A 0.55 0.55 0.0 0 1 183.00 114.55
  L 183.00 136.42
  A 0.55 0.55 0.0 0 0 183.55 136.97
  L 205.45 137.06
  A 0.55 0.55 0.0 0 1 206.00 137.61
  L 206.00 159.45
  A 0.55 0.55 0.0 0 1 205.45 160.00
  L 183.55 160.00
  A 0.55 0.55 0.0 0 1 183.00 159.45
  L 183.00 137.55
  A 0.55 0.55 0.0 0 0 182.45 137.00
  L 137.55 137.00
  A 0.55 0.55 0.0 0 0 137.00 137.55
  L 137.00 159.45
  A 0.55 0.55 0.0 0 0 137.55 160.00
  L 182.45 160.00
  A 0.55 0.55 0.0 0 1 183.00 160.55
  L 183.00 205.45
  A 0.55 0.55 0.0 0 1 182.45 206.00
  L 160.55 206.00
  A 0.55 0.55 0.0 0 1 160.00 205.45
  L 160.00 183.55
  A 0.55 0.55 0.0 0 0 159.45 183.00
  Z"
/>
<path fill="#ffffff" d="
  M 275.02 137.00
  L 275.05 114.68
  Q 275.05 114.00 275.73 114.00
  L 343.50 114.00
  A 0.50 0.50 0.0 0 1 344.00 114.50
  L 344.00 136.48
  A 0.50 0.50 0.0 0 1 343.50 136.98
  L 275.02 137.00
  Z"
/>
<path fill="#ffffff" d="
  M 413.02 136.99
  L 413.05 114.68
  Q 413.05 114.00 413.73 114.00
  L 481.50 114.00
  A 0.50 0.50 0.0 0 1 482.00 114.50
  L 482.00 136.48
  A 0.49 0.49 0.0 0 1 481.51 136.97
  L 413.02 136.99
  Z"
/>
<path fill="#ffffff" d="
  M 918.52 137.00
  L 896.48 137.00
  A 0.48 0.48 0.0 0 1 896.00 136.52
  L 896.00 114.48
  A 0.48 0.48 0.0 0 1 896.48 114.00
  L 941.52 114.00
  A 0.48 0.48 0.0 0 1 942.00 114.48
  L 942.00 205.52
  A 0.48 0.48 0.0 0 0 942.48 206.00
  L 964.52 206.00
  A 0.48 0.48 0.0 0 1 965.00 206.48
  L 965.00 228.52
  A 0.48 0.48 0.0 0 1 964.52 229.00
  L 896.48 229.00
  A 0.48 0.48 0.0 0 1 896.00 228.52
  L 896.00 206.48
  A 0.48 0.48 0.0 0 1 896.48 206.00
  L 918.52 206.00
  A 0.48 0.48 0.0 0 0 919.00 205.52
  L 919.00 137.48
  A 0.48 0.48 0.0 0 0 918.52 137.00
  Z"
/>
<path fill="#ffffff" d="
  M 1096.01 137.00
  L 1096.05 114.68
  A 0.68 0.68 0.0 0 1 1096.73 114.00
  L 1141.00 114.00
  A 1.00 1.00 0.0 0 1 1142.00 115.00
  L 1142.00 136.49
  Q 1142.00 136.99 1141.50 136.99
  L 1096.01 137.00
  Z"
/>
<path fill="#ffffff" d="
  M 275.02 137.00
  L 274.99 159.32
  A 0.67 0.67 0.0 0 1 274.32 159.99
  L 252.50 160.01
  Q 252.00 160.01 252.00 159.50
  L 252.00 137.53
  Q 252.00 137.04 252.50 137.04
  L 275.02 137.00
  Z"
/>
<path fill="#ffffff" d="
  M 413.02 136.99
  L 413.00 159.16
  A 0.84 0.84 0.0 0 1 412.16 160.00
  L 390.50 160.00
  A 0.50 0.50 0.0 0 1 390.00 159.50
  L 390.00 138.00
  A 1.00 0.99 -90.0 0 1 390.99 137.00
  L 413.02 136.99
  Z"
/>
<path fill="#ffffff" d="
  M 1096.01 137.00
  L 1095.98 205.48
  Q 1095.98 206.00 1095.46 206.00
  L 1073.50 206.00
  Q 1073.00 206.00 1073.00 205.50
  L 1073.00 137.51
  A 0.51 0.50 -90.0 0 1 1073.50 137.00
  L 1096.01 137.00
  Z"
/>
<path fill="#ffffff" d="
  M 1141.98 206.01
  L 1142.00 137.52
  A 0.53 0.52 90.0 0 1 1142.52 136.99
  L 1163.76 137.02
  Q 1165.00 137.02 1165.00 138.26
  L 1165.00 205.49
  A 0.51 0.51 0.0 0 1 1164.49 206.00
  L 1141.98 206.01
  Z"
/>
<path fill="#ffffff" d="
  M 321.61 183.00
  L 343.39 183.00
  A 0.61 0.61 0.0 0 1 344.00 183.61
  L 344.00 205.39
  A 0.61 0.61 0.0 0 1 343.39 206.00
  L 321.61 206.00
  A 0.61 0.61 0.0 0 1 321.00 205.39
  L 321.00 183.61
  A 0.61 0.61 0.0 0 0 320.39 183.00
  L 275.61 183.00
  A 0.61 0.61 0.0 0 1 275.00 182.39
  L 275.00 160.61
  A 0.61 0.61 0.0 0 1 275.61 160.00
  L 320.39 160.00
  A 0.61 0.61 0.0 0 1 321.00 160.61
  L 321.00 182.39
  A 0.61 0.61 0.0 0 0 321.61 183.00
  Z"
/>
<path fill="#ffffff" d="
  M 459.55 183.00
  L 481.45 183.00
  A 0.55 0.55 0.0 0 1 482.00 183.55
  L 482.00 205.45
  A 0.55 0.55 0.0 0 1 481.45 206.00
  L 459.55 206.00
  A 0.55 0.55 0.0 0 1 459.00 205.45
  L 459.00 183.55
  A 0.55 0.55 0.0 0 0 458.45 183.00
  L 413.55 183.00
  A 0.55 0.55 0.0 0 1 413.00 182.45
  L 413.00 160.55
  A 0.55 0.55 0.0 0 1 413.55 160.00
  L 458.45 160.00
  A 0.55 0.55 0.0 0 1 459.00 160.55
  L 459.00 182.45
  A 0.55 0.55 0.0 0 0 459.55 183.00
  Z"
/>
<rect fill="#ffffff" x="183.00" y="206.00" width="23.00" height="23.00" rx="0.52"/>
<rect fill="#ffffff" x="252.00" y="206.00" width="69.00" height="23.00" rx="0.50"/>
<rect fill="#ffffff" x="390.00" y="206.00" width="69.00" height="23.00" rx="0.50"/>
<rect fill="#ffffff" x="-11.50" y="-11.50" transform="translate(1015.50,217.50) rotate(-0.1)" width="23.00" height="23.00" rx="0.59"/>
<path fill="#ffffff" d="
  M 1141.98 206.01
  L 1141.92 228.36
  A 0.64 0.64 0.0 0 1 1141.28 229.00
  L 1096.50 229.00
  A 0.50 0.50 0.0 0 1 1096.00 228.50
  L 1096.00 206.52
  A 0.49 0.49 0.0 0 1 1096.49 206.03
  L 1141.98 206.01
  Z"
/>
</svg>
